<svg xmlns="http://www.w3.org/2000/svg" viewBox="0 0 120 120"><title>Asset 12</title><g id="848f0908-731f-4d05-b9e9-675f5379b0c9" data-name="Layer 2"><g id="5eaab071-8a7f-418b-b80d-a7fb8caff201" data-name="Layer 1"><path d="M79.79,57.64,54.87,39.55A3,3,0,0,0,50.11,42V78.18a3,3,0,0,0,1.64,2.69,3.12,3.12,0,0,0,1.37.31,3,3,0,0,0,1.75-.59L79.79,62.5A3,3,0,0,0,81,60.08a3,3,0,0,0-1.25-2.44Z" fill="#fff"/><path d="M60,0a60,60,0,1,0,60,60A60,60,0,0,0,60,0Zm0,110a50,50,0,1,1,50-50,50,50,0,0,1-50,50Z" fill="#fff"/></g></g></svg>